<?xml version="1.0" encoding="utf-8"?>
<!-- Generator: Adobe Illustrator 28.0.0, SVG Export Plug-In . SVG Version: 6.00 Build 0)  -->
<svg version="1.1" id="Layer_1" xmlns="http://www.w3.org/2000/svg" xmlns:xlink="http://www.w3.org/1999/xlink" x="0px" y="0px"
	 viewBox="0 0 48 48" style="enable-background:new 0 0 48 48;" xml:space="preserve">
<style type="text/css">
	.st0{fill:#FFFFFF;stroke:#000000;stroke-miterlimit:10;}
	.st1{fill:#231F20;stroke:#000000;stroke-miterlimit:10;}
	.st2{fill:none;stroke:#000000;stroke-miterlimit:10;}
</style>
<g>
	<polygon class="st0" points="7.69,33.02 5.46,33.59 7.69,34.71 9.91,35.82 12.14,36.93 14.36,38.04 16.58,39.15 18.79,40.26 
		21.01,41.37 23.22,42.47 23.22,46.96 21.01,45.86 18.79,44.75 16.58,43.65 14.36,42.54 12.14,41.43 9.91,40.32 7.69,39.21 
		5.46,38.1 3.23,36.98 1,35.87 1,31.36 3.23,30.79 3.97,30.59 5.46,30.21 6.94,29.83 7.69,29.64 9.91,29.06 12.14,28.49 12.88,28.3 
		14.36,27.92 15.84,27.53 16.58,27.34 18.79,26.77 16.58,25.66 14.36,24.54 12.14,23.43 9.91,22.31 7.69,21.19 5.46,20.07 
		3.23,18.95 1,17.83 1,13.32 3.23,14.44 5.46,15.56 5.46,15.56 7.69,16.69 9.91,17.81 12.14,18.92 14.36,20.04 16.58,21.16 
		18.79,22.28 21.01,23.39 23.22,24.51 23.22,29 21.01,29.57 20.27,29.76 18.79,30.14 17.32,30.53 16.58,30.72 14.36,31.29 
		14.36,31.29 12.14,31.86 11.4,32.06 9.91,32.44 8.43,32.82 	"/>
	<polygon class="st1" points="18.79,26.77 16.58,27.34 15.84,27.53 14.36,27.92 12.88,28.3 12.14,28.49 9.91,29.06 7.69,29.64 
		6.94,29.83 5.46,30.21 3.97,30.59 3.23,30.79 1,31.36 1,17.83 3.23,18.95 5.46,20.07 7.69,21.19 9.91,22.31 12.14,23.43 
		14.36,24.54 16.58,25.66 	"/>
	<polygon class="st1" points="23.22,29 23.22,42.47 21.01,41.37 18.79,40.26 16.58,39.15 14.36,38.04 12.14,36.93 9.91,35.82 
		7.69,34.71 5.46,33.59 7.69,33.02 8.43,32.82 9.91,32.44 11.4,32.06 12.14,31.86 14.36,31.29 14.36,31.29 16.58,30.72 17.32,30.53 
		18.79,30.14 20.27,29.76 21.01,29.57 	"/>
</g>
<g>
	<polygon class="st1" points="40.31,32.49 42.54,33.63 40.31,34.74 38.09,35.85 35.87,36.97 33.64,38.08 31.42,39.19 29.21,40.29 
		26.99,41.4 24.78,42.51 24.78,29.04 26.99,27.92 29.21,26.81 31.42,25.69 33.64,24.58 35.87,23.46 38.09,22.34 40.31,21.23 
		42.54,20.11 40.31,23.48 40.31,23.48 38.09,26.85 38.09,26.85 38.09,26.85 35.87,30.21 38.09,31.35 	"/>
	<polygon class="st1" points="47,17.86 47,31.4 44.77,30.26 44.77,30.26 42.54,29.12 40.31,27.98 42.54,24.61 44.77,21.24 
		44.77,21.24 	"/>
	<polygon class="st0" points="42.54,24.61 40.31,27.98 42.54,29.12 44.77,30.26 44.77,30.26 47,31.4 47,35.91 44.77,37.02 
		42.54,38.13 42.54,38.13 40.31,39.24 38.09,40.36 35.87,41.47 33.64,42.57 31.42,43.68 31.42,43.68 29.21,44.79 26.99,45.9 
		24.78,47 24.78,42.51 26.99,41.4 29.21,40.29 31.42,39.19 33.64,38.08 35.87,36.97 38.09,35.85 40.31,34.74 42.54,33.63 
		40.31,32.49 38.09,31.35 35.87,30.21 38.09,26.85 38.09,26.85 38.09,26.85 40.31,23.48 40.31,23.48 42.54,20.11 40.31,21.23 
		38.09,22.34 35.87,23.46 33.64,24.58 31.42,25.69 29.21,26.81 26.99,27.92 24.78,29.04 24.78,24.54 26.99,23.43 29.21,22.31 
		31.42,21.2 33.64,20.08 35.87,18.96 38.09,17.84 40.31,16.72 42.54,15.6 44.77,14.48 47,13.35 47,17.86 44.77,21.24 44.77,21.24 	
		"/>
	<line class="st2" x1="38.09" y1="40.36" x2="38.09" y2="40.36"/>
	<line class="st2" x1="44.77" y1="37.02" x2="44.77" y2="37.02"/>
</g>
<g>
	<polygon class="st1" points="41.73,12.19 39.49,13.32 37.25,14.45 35.01,15.57 35.01,15.57 32.77,16.7 30.53,17.83 32.76,18.95 
		30.52,20.08 28.28,21.21 26.04,22.34 23.8,23.47 21.58,22.34 19.36,21.21 17.14,20.08 19.38,18.96 21.61,17.83 23.83,18.96 
		24.59,17.08 24.97,16.14 25.35,15.2 26.1,13.33 26.86,11.46 27.24,10.52 27.62,9.58 28.37,7.71 26.15,6.6 28.39,5.47 30.61,6.59 
		32.82,7.71 35.05,8.83 37.27,9.95 39.5,11.07 	"/>
	<polygon class="st0" points="46.19,12.19 43.95,13.32 41.71,14.44 39.48,15.57 37.24,16.7 35,17.83 32.76,18.95 30.53,17.83 
		32.77,16.7 35.01,15.57 35.01,15.57 37.25,14.45 39.49,13.32 41.73,12.19 39.5,11.07 37.27,9.95 35.05,8.83 32.82,7.71 30.61,6.59 
		28.39,5.47 30.62,4.35 32.84,5.46 35.06,6.58 35.06,6.58 37.28,7.7 39.51,8.82 41.73,9.94 41.74,9.94 43.96,11.07 43.96,11.07 	"/>
	<polygon class="st0" points="17.16,17.83 19.38,18.96 17.14,20.08 14.92,18.96 12.71,17.83 10.5,16.71 8.29,15.59 6.08,14.47 
		3.88,13.35 1.67,12.23 3.9,11.11 6.13,9.98 8.36,8.86 10.59,7.74 12.82,6.61 15.05,5.49 17.28,4.37 19.49,5.48 17.26,6.61 
		12.8,8.85 10.57,9.98 6.11,12.22 8.31,13.34 10.52,14.47 12.73,15.59 14.94,16.71 14.95,16.71 	"/>
	<polygon class="st1" points="30.62,4.35 28.39,5.47 26.15,6.6 25.4,8.47 25.02,9.4 24.64,10.34 23.89,12.21 23.13,14.08 
		22.75,15.02 22.37,15.96 21.61,17.83 19.38,18.96 17.16,17.83 14.95,16.71 14.94,16.71 12.73,15.59 10.52,14.47 8.31,13.34 
		6.11,12.22 10.57,9.98 12.8,8.85 17.26,6.61 19.49,5.48 17.28,4.37 19.51,3.25 19.51,3.25 21.74,2.12 23.97,1 26.19,2.11 
		28.4,3.23 	"/>
	<polygon class="st0" points="28.37,7.71 27.62,9.58 27.24,10.52 26.86,11.46 26.1,13.33 25.35,15.2 24.97,16.14 24.59,17.08 
		23.83,18.96 21.61,17.83 22.37,15.96 22.75,15.02 23.13,14.08 23.89,12.21 24.64,10.34 25.02,9.4 25.4,8.47 26.15,6.6 	"/>
</g>
<line class="st1" x1="1" y1="13.32" x2="23.22" y2="24.51"/>
<line class="st1" x1="23.22" y1="24.51" x2="23.22" y2="29"/>
<line class="st1" x1="1" y1="13.32" x2="1" y2="17.83"/>
<line class="st1" x1="1" y1="31.36" x2="1" y2="35.87"/>
<line class="st1" x1="1" y1="35.87" x2="23.22" y2="46.96"/>
<line class="st1" x1="23.22" y1="42.47" x2="23.22" y2="46.96"/>
<line class="st1" x1="24.78" y1="24.54" x2="47" y2="13.35"/>
<line class="st1" x1="24.78" y1="24.54" x2="24.78" y2="29.04"/>
<line class="st1" x1="47" y1="13.35" x2="47" y2="17.86"/>
<line class="st0" x1="24.78" y1="42.51" x2="24.78" y2="47"/>
<line class="st1" x1="24.78" y1="47" x2="47" y2="35.91"/>
<line class="st1" x1="47" y1="35.91" x2="47" y2="31.4"/>
<line class="st2" x1="47" y1="17.86" x2="47" y2="13.35"/>
</svg>
